<?xml version="1.0" encoding="utf-8"?>
<!-- Generator: Adobe Illustrator 16.0.0, SVG Export Plug-In . SVG Version: 6.00 Build 0)  -->
<!DOCTYPE svg PUBLIC "-//W3C//DTD SVG 1.1//EN" "http://www.w3.org/Graphics/SVG/1.1/DTD/svg11.dtd">
<svg version="1.1" id="Calque_1" xmlns="http://www.w3.org/2000/svg" xmlns:xlink="http://www.w3.org/1999/xlink" x="0px" y="0px"
	 width="359px" height="293px" viewBox="0 0 359 293" enable-background="new 0 0 359 293" xml:space="preserve">
<g>
	<path fill="none" d="M251.002,16.02H25.996c-4.763,0-8.622,3.676-8.622,8.21v123.506c0,4.537,3.859,8.213,8.622,8.213h215.827
		V83.973h17.801V24.229C259.623,19.696,255.764,16.02,251.002,16.02z"/>
	<path fill="#FFFFFF" d="M258.004,7.943H18.993c-5.059,0-9.159,4.098-9.159,9.158v137.766c0,5.058,4.1,9.159,9.159,9.159h92.375
		v14.533c-13.611,1.105-22.616,3.017-22.616,5.19c0,3.417,22.272,6.19,49.747,6.19c27.474,0,49.746-2.773,49.746-6.19
		c0-2.174-9.005-4.085-22.616-5.19v-14.533h76.193v-8.077H25.996c-4.763,0-8.622-3.676-8.622-8.213V24.229
		c0-4.534,3.859-8.21,8.622-8.21h225.006c4.762,0,8.621,3.676,8.621,8.21v59.743h7.541V17.101
		C267.164,12.041,263.062,7.943,258.004,7.943z"/>
</g>
<path fill="none" d="M312.43,94.322c0-4.24-3.349-7.68-7.481-7.68h-52.345c-4.135,0-7.483,3.439-7.483,7.68v72.702
	c0,4.243,3.349,7.683,7.483,7.683h47.219l-0.539-13.012h13.134c0.003-0.084,0.013-0.167,0.013-0.252V94.322z"/>
<path fill="#FFFFFF" d="M252.604,174.707c-4.135,0-7.483-3.439-7.483-7.683V94.322c0-4.24,3.349-7.68,7.483-7.68h52.345
	c4.133,0,7.481,3.439,7.481,7.68v67.121c0,0.085-0.01,0.168-0.013,0.252h7.552V86.677c0-5.061-4.1-9.16-9.157-9.16H246.74
	c-5.06,0-9.159,4.099-9.159,9.16v94.753c0,5.058,4.1,9.159,9.159,9.159h54.51l-1.999-15.883H252.604z M278.775,186.147
	c-1.784,0-3.231-1.448-3.231-3.231c0-1.786,1.447-3.23,3.231-3.23c1.783,0,3.23,1.445,3.23,3.23
	C282.006,184.699,280.559,186.147,278.775,186.147z"/>
<g>
	<path fill="#FFFFFF" d="M296.374,162.159v25.097c0,1.841,1.492,3.334,3.335,3.334h47.172c1.841,0,3.335-1.493,3.335-3.334v-25.097
		c0-1.843-1.494-3.338-3.335-3.338h-47.172C297.866,158.821,296.374,160.316,296.374,162.159z M347.35,174.708
		c0,1.182-0.959,2.141-2.142,2.141c-1.185,0-2.145-0.958-2.145-2.141c0-1.182,0.96-2.145,2.145-2.145
		C346.391,172.563,347.35,173.526,347.35,174.708z M340.022,163.394v22.626h-38.972v-22.626H340.022z"/>
</g>
<g>
	<path fill="#FFFFFF" d="M170.52,265.391c-1.107,0-2.162-0.588-2.162-1.863V246.86h5.358v-6.724h-5.358v-10.671l-7.803,4.194v6.477
		h-4.719v6.724h4.719v18.283c0,3.555,2.228,7.351,8.479,7.351c2.941,0,4.876-0.775,4.876-0.775v-6.975
		C173.91,264.744,171.746,265.391,170.52,265.391z"/>
	<path fill="#FFFFFF" d="M103.188,265.391c-1.108,0-2.163-0.588-2.163-1.863V246.86h5.358v-6.724h-5.358v-10.671l-7.803,4.194v6.477
		h-4.718v6.724h4.718v18.283c0,3.555,2.228,7.351,8.48,7.351c2.941,0,4.876-0.775,4.876-0.775v-6.975
		C106.578,264.744,104.414,265.391,103.188,265.391z"/>
	<path fill="#FFFFFF" d="M72.234,239.346c-3.002,0-6.726,1.915-8.378,4.67l-0.545-3.92h-6.955v32.438h7.784v-18.771
		c0-4.426,3.646-7.165,7.026-7.165c4.432,0,6.009,3.792,6.009,7.342v18.594h7.781v-18.969
		C84.955,244.396,80.438,239.346,72.234,239.346z"/>
	<path fill="#FFFFFF" d="M307.772,257.764c0,4.426-3.74,7.165-7.203,7.165c-3.701,0-4.951-1.853-4.951-7.344v-17.448h-7.779v18.176
		c0,9.57,3.871,14.222,11.837,14.222c3.252,0,6.646-1.468,8.559-4.34l0.364,3.591h6.956v-31.648h-7.782V257.764z"/>
	<path fill="#FFFFFF" d="M228.273,265.391c-1.108,0-2.163-0.588-2.163-1.863V246.86h5.358v-6.724h-5.358v-10.671l-7.803,4.194v6.477
		h-4.719v6.724h4.719v18.283c0,3.555,2.229,7.351,8.48,7.351c2.94,0,4.875-0.775,4.875-0.775v-6.975
		C231.663,264.744,229.499,265.391,228.273,265.391z"/>
	<rect x="112.532" y="240.096" fill="#FFFFFF" width="7.782" height="32.438"/>
	<path fill="#FFFFFF" d="M116.421,225.932c-2.601,0-4.716,2.116-4.716,4.718s2.115,4.717,4.716,4.717
		c2.603,0,4.718-2.115,4.718-4.717S119.023,225.932,116.421,225.932z"/>
	<rect x="237.83" y="240.096" fill="#FFFFFF" width="7.784" height="32.438"/>
	<path fill="#FFFFFF" d="M241.722,225.932c-2.602,0-4.718,2.116-4.718,4.718s2.116,4.717,4.718,4.717
		c2.599,0,4.719-2.115,4.719-4.717S244.32,225.932,241.722,225.932z"/>
	<path fill="#FFFFFF" d="M351.018,257.365c0-5.406-1.279-9.861-3.823-13.051c-2.434-3.052-6.023-4.955-10.801-4.955
		c-4.359,0-8.336,1.727-11.195,4.916c-2.826,3.148-4.384,7.496-4.384,12.244c0,10.68,7.977,16.731,15.402,16.731
		s12.16-3.308,13.911-8.137l-7.329-2.126c-1.25,1.934-3.042,3.083-6.582,3.083c-4.359,0-6.998-3.619-7.181-7.037h21.896
		C350.933,259.034,351.018,258.015,351.018,257.365z M329.185,252.878c0.521-3.013,2.393-6.457,7.009-6.457
		c4.624,0,6.368,3.11,6.602,6.457H329.185z"/>
	<path fill="#FFFFFF" d="M27.452,227.5l-16.308,44.971h8.535l3.129-9.047h17.173l3.208,9.047h9.104L35.955,227.5H27.452z
		 M25.389,255.857l6.001-17.321l5.902,17.321H25.389z"/>
	<path fill="#FFFFFF" d="M124.83,263.296c0.936,6.137,6.324,9.953,13.94,9.953c9.269,0,13.729-4.188,13.729-9.832
		c0-5.928-4.123-8.75-10.64-10.508c-6.998-1.889-8.016-2.505-8.016-4.104c0-1.084,1.107-2.763,4.413-2.763
		c3.578,0,5.45,1.653,6.056,3.69l7.611-1.309c-1.508-5.513-6.232-9.048-13.667-9.048c-6.927,0-12.137,4.459-12.137,9.704
		c0,5.48,3.484,7.861,10.154,9.518c6.893,1.709,8.557,2.995,8.557,4.541c0,1.793-1.801,3.093-5.815,3.093
		c-3.315,0-5.817-1.646-6.281-4.339L124.83,263.296z"/>
	<path fill="#FFFFFF" d="M274.146,243.908c-1.301-2.477-4.366-4.549-8.138-4.549c-8.559,0-15.013,7.365-15.013,17.134
		c0,9.712,6.165,16.76,14.661,16.76c3.392,0,6.884-2.073,8.186-5.092v17.092h7.782v-45.116h-6.949L274.146,243.908z
		 M266.479,265.998c-4.291,0-7.772-4.354-7.772-9.727c0-5.371,3.481-9.728,7.772-9.728c4.296,0,7.777,4.356,7.777,9.728
		C274.257,261.645,270.775,265.998,266.479,265.998z"/>
	<path fill="#FFFFFF" d="M209.85,265.391c-0.869,0-1.595-0.511-1.595-1.458v-23.796h-6.949l-0.487,3.781
		c-1.593-2.951-4.862-4.559-8.177-4.559c-8.561,0-15.017,7.365-15.017,17.134c0,9.712,6.166,16.76,14.661,16.76
		c3.785,0,7.716-2.582,8.814-5.213c0.039,2.246,2.078,4.444,6.01,4.444c2.83,0,5.295-0.766,5.295-0.766v-6.975
		C212.405,264.744,210.821,265.391,209.85,265.391z M193.11,265.998c-4.292,0-7.774-4.354-7.774-9.727
		c0-5.371,3.482-9.728,7.774-9.728c4.295,0,7.774,4.356,7.774,9.728C200.885,261.645,197.405,265.998,193.11,265.998z"/>
</g>
</svg>
