<?xml version="1.0" encoding="utf-8"?>
<!-- Generator: Adobe Illustrator 18.1.0, SVG Export Plug-In . SVG Version: 6.00 Build 0)  -->
<svg version="1.1" id="Calque_1" xmlns="http://www.w3.org/2000/svg" xmlns:xlink="http://www.w3.org/1999/xlink" x="0px" y="0px"
	 viewBox="0 0 168.6 29.2" enable-background="new 0 0 168.6 29.2" xml:space="preserve">
<g>
	<path fill="#FFFFFF" d="M5.2,25.8c-0.9,0-1.6-0.7-1.6-1.5V5.1c0-0.8,0.7-1.5,1.6-1.5h7.6c6.9,0,10.4,5.5,10.4,11.1
		c0,5.5-3.4,11.1-10.4,11.1H5.2z M6.1,23.5h6.7c5.2,0,7.8-4.4,7.8-8.8c0-4.4-2.6-8.8-7.8-8.8H6.1V23.5z"/>
	<path fill="#FFFFFF" d="M36.8,8.1c3.9,1.1,6.4,4.3,6.4,8.7v0c0.1,0.8-0.3,1.6-1.7,1.6H27.8c0.5,2.9,2.9,5.2,6.4,5.2
		c1.6,0,3.3-0.4,4.6-1.5c1.2-1.1,3,0.3,1.7,1.7c-1.6,1.5-3.9,2.1-6.2,2.1c-2.7,0-5.4-1-7.1-3.1c-3.8-4.9-2.1-12.9,4.3-14.8
		C33.2,7.6,35.1,7.7,36.8,8.1L36.8,8.1z M27.7,16.3h13.1c-0.2-3-2.1-5.2-4.8-5.9h0c-1.1-0.3-2.6-0.3-3.8,0
		C29.6,11.2,27.9,13.5,27.7,16.3z"/>
	<path fill="#FFFFFF" d="M44,9.5c-0.5-1.5,1.8-2.3,2.4-0.9c2.4,4.8,4.4,8.7,6.8,13.6l6.9-13.6c0.5-1.3,2.9-0.6,2.3,0.9l-8,16
		c-0.5,0.9-1.6,1.2-2.3,0L44,9.5z"/>
	<path fill="#FFFFFF" d="M67.8,5.5c0,1.6-2.6,1.6-2.6,0V3.9c0-1.6,2.6-1.6,2.6,0V5.5z M65.2,9.2c0-1.5,2.5-1.5,2.5,0v15.7
		c0,1.5-2.5,1.5-2.5,0V9.2z"/>
	<path fill="#FFFFFF" d="M79.8,9.9c-3.8,0-6.4,3.1-6.4,7.1c0,1.6,0.5,3.3,1.5,4.6c1.2,1.5,3.1,2.3,5,2.3c1.8,0,3.9-0.6,5.1-2.3
		c0.9-1.2,3,0.2,1.8,1.5c-1.7,2.1-4.3,3.1-6.9,3.1c-2.6,0-5.3-1.1-7-3.1c-1.5-1.8-2.2-4.3-2.1-6.8c0.3-5.1,3.9-8.7,9.2-8.7
		c2.5,0,4.5,0.8,6.4,3c1,1.1-0.9,2.6-1.8,1.5C83.4,10.5,81.6,9.9,79.8,9.9z"/>
	<path fill="#FFFFFF" d="M100.7,8.1c3.9,1.1,6.4,4.3,6.4,8.7v0c0.1,0.8-0.3,1.6-1.7,1.6H91.6c0.5,2.9,2.9,5.2,6.4,5.2
		c1.6,0,3.3-0.4,4.6-1.5c1.2-1.1,3,0.3,1.7,1.7c-1.6,1.5-3.9,2.1-6.2,2.1c-2.7,0-5.4-1-7.1-3.1c-3.8-4.9-2.1-12.9,4.3-14.8
		C97,7.6,98.9,7.7,100.7,8.1L100.7,8.1L100.7,8.1z M91.5,16.3h13.1c-0.2-3-2.1-5.2-4.8-5.9h0c-1.1-0.3-2.6-0.3-3.8,0
		C93.4,11.2,91.7,13.5,91.5,16.3z"/>
	<path fill="#FFFFFF" d="M112,25.8c-0.9,0-1.3-0.5-1.3-1.3v-20c0-1.6,2.6-1.6,2.6,0v19h13c1.8,0,1.8,2.3,0,2.3H112z"/>
	<path fill="#FFFFFF" d="M133.6,8.5c1.1-0.5,2.4-0.7,3.7-0.7c2,0,4.2,0.7,5.5,2.7V9.2c0-0.7,0.5-1.3,1.3-1.3c0.8,0,1.3,0.5,1.3,1.3
		v15.4c0,0.8-0.5,1.3-1.3,1.3c-0.8,0-1.3-0.5-1.3-1.3V23c-1,2-3.6,3.2-5.6,3.2c-1.7,0-3.5-0.5-5-1.5c-2.6-1.8-4-4.8-3.9-8.2
		C128.3,13,130.2,9.8,133.6,8.5L133.6,8.5z M142.8,18.4v-2.7c0-3.4-2.4-5.2-5.5-5.4c-2.5,0-5,1.3-5.9,3.7c-0.3,0.7-0.5,1.7-0.5,2.6
		c-0.1,2.3,0.7,4.3,2.5,5.9c1,0.8,2.3,1.2,3.6,1.3C140.1,23.8,142.6,21.8,142.8,18.4z"/>
	<path fill="#FFFFFF" d="M160.8,25.6L160.8,25.6c-1,0.4-2.2,0.6-3.3,0.6c-2.1,0-4.5-0.9-5.7-3.1v1.6c0,0.8-0.4,1.2-1.2,1.2
		c-0.8,0-1.3-0.5-1.3-1.2v-21c0-1.6,2.5-1.6,2.5,0v6.9c1-1.8,3.3-2.8,5.6-2.8c5.2,0,8.8,3.7,8.9,8.7C166.5,20.6,164.6,24,160.8,25.6
		z M161.2,22.5c1.9-1.6,2.6-3.7,2.6-5.9c0-0.9-0.2-1.8-0.5-2.6c-1-2.4-3.5-3.7-5.9-3.7c-3.2,0.1-5.5,2.3-5.5,5.4v2.7
		c0,3.4,2.7,5.4,5.8,5.4C159,23.7,160.2,23.3,161.2,22.5z"/>
</g>
</svg>
