<?xml version="1.0" encoding="utf-8"?>
<!-- Generator: Adobe Illustrator 16.0.0, SVG Export Plug-In . SVG Version: 6.00 Build 0)  -->
<!DOCTYPE svg PUBLIC "-//W3C//DTD SVG 1.1//EN" "http://www.w3.org/Graphics/SVG/1.1/DTD/svg11.dtd">
<svg version="1.1" id="Layer_1" xmlns="http://www.w3.org/2000/svg" xmlns:xlink="http://www.w3.org/1999/xlink" x="0px" y="0px"
	 width="188px" height="149px" viewBox="0 0 188 149" enable-background="new 0 0 188 149" xml:space="preserve">
<g opacity="0.85">
	<path opacity="0.85" fill="#1D70B7" d="M167.75,29.084h-37.483V18.987c0-10.612-8.633-19.246-19.243-19.246H77.125
		c-10.61,0-19.243,8.634-19.243,19.246v10.097H20.398c-11.207,0-20.324,9.117-20.324,20.324v79.009
		c0,11.206,9.117,20.323,20.324,20.323h147.354c11.205,0,20.322-9.117,20.322-20.323V49.408
		C188.074,38.201,178.957,29.084,167.75,29.084z M60.602,18.987c0-9.112,7.412-16.524,16.522-16.524h33.901
		c9.11,0,16.522,7.412,16.522,16.524l-0.006,10.097h-66.94V18.987z M185.354,128.417c0,9.705-7.896,17.603-17.604,17.603H20.398
		c-9.707,0-17.604-7.897-17.604-17.603V49.408c0-9.707,7.897-17.604,17.604-17.604H167.75c9.707,0,17.604,7.896,17.604,17.604
		V128.417z"/>
	<g opacity="0.85">
		<path fill="#1D70B7" d="M28.56,99.59c-0.721,0-1.326-0.575-1.326-1.238V82.469c0-0.662,0.605-1.21,1.326-1.21h6.283
			c5.736,0,8.59,4.584,8.59,9.165c0,4.584-2.854,9.166-8.59,9.166H28.56z M29.31,97.717h5.533c4.323,0,6.484-3.66,6.484-7.293
			c0-3.63-2.161-7.32-6.484-7.32H29.31V97.717z"/>
		<path fill="#1D70B7" d="M54.791,84.978c3.258,0.894,5.275,3.546,5.332,7.233v-0.027c0.059,0.634-0.229,1.325-1.41,1.325H47.326
			c0.375,2.364,2.393,4.323,5.275,4.323c1.326,0,2.708-0.346,3.833-1.209c1.009-0.922,2.508,0.259,1.384,1.412
			c-1.326,1.238-3.258,1.757-5.132,1.729c-2.247,0-4.495-0.865-5.851-2.566c-3.113-4.093-1.758-10.722,3.604-12.221
			c1.354-0.403,2.911-0.375,4.323,0H54.791z M47.24,91.751h10.866c-0.201-2.45-1.7-4.324-3.948-4.899h0.028
			c-0.951-0.26-2.131-0.26-3.112,0.029C48.767,87.485,47.412,89.416,47.24,91.751z"/>
		<path fill="#1D70B7" d="M60.731,86.102c-0.432-1.211,1.469-1.901,1.988-0.777c1.99,3.977,3.632,7.234,5.65,11.24l5.707-11.299
			c0.432-1.065,2.393-0.462,1.874,0.722l-6.658,13.229c-0.375,0.749-1.355,0.979-1.902,0.027L60.731,86.102z"/>
		<path fill="#1D70B7" d="M80.418,82.758c0,1.296-2.16,1.325-2.16,0v-1.297c0-1.327,2.16-1.327,2.16,0V82.758z M78.286,85.871
			c0-1.24,2.104-1.269,2.104-0.028v12.999c0,1.268-2.104,1.238-2.104,0V85.871z"/>
		<path fill="#1D70B7" d="M90.421,86.447c-3.142,0-5.274,2.565-5.274,5.852c0,1.297,0.375,2.768,1.238,3.805
			c1.009,1.239,2.594,1.902,4.151,1.902c1.528,0,3.2-0.52,4.207-1.902c0.722-0.98,2.452,0.145,1.471,1.269
			c-1.413,1.729-3.574,2.566-5.707,2.566c-2.162,0-4.354-0.895-5.794-2.566c-1.21-1.499-1.817-3.545-1.701-5.649
			c0.231-4.266,3.257-7.178,7.639-7.178c2.074,0,3.745,0.693,5.304,2.451c0.836,0.951-0.723,2.161-1.528,1.211
			C93.332,86.938,91.861,86.447,90.421,86.447z"/>
		<path fill="#1D70B7" d="M107.66,84.978c3.256,0.894,5.275,3.546,5.332,7.233v-0.027c0.059,0.634-0.23,1.325-1.414,1.325h-11.384
			c0.374,2.364,2.394,4.323,5.274,4.323c1.326,0,2.711-0.346,3.834-1.209c1.009-0.922,2.508,0.259,1.383,1.412
			c-1.326,1.238-3.257,1.757-5.131,1.729c-2.248,0-4.496-0.865-5.852-2.566c-3.112-4.093-1.756-10.722,3.604-12.221
			c1.355-0.403,2.911-0.375,4.324,0H107.66L107.66,84.978z M100.106,91.751h10.866c-0.199-2.45-1.699-4.324-3.948-4.899h0.029
			c-0.95-0.26-2.134-0.26-3.113,0.029C101.636,87.485,100.281,89.416,100.106,91.751z"/>
		<path fill="#1D70B7" d="M117.029,99.59c-0.778,0-1.096-0.373-1.096-1.066V81.979c0-1.355,2.133-1.355,2.133,0v15.709h10.781
			c1.469,0,1.469,1.901,0,1.901H117.029z"/>
		<path fill="#1D70B7" d="M134.916,85.295c0.951-0.434,1.988-0.577,3.084-0.549c1.643,0.029,3.518,0.549,4.554,2.25v-1.097
			c0-0.604,0.376-1.038,1.037-1.038c0.636,0,1.068,0.434,1.068,1.038v12.798c0,0.635-0.433,1.037-1.068,1.037
			c-0.661,0-1.037-0.402-1.037-1.037v-1.384c-0.837,1.671-2.969,2.624-4.669,2.624c-1.384,0-2.94-0.375-4.15-1.24
			c-2.191-1.5-3.315-3.95-3.229-6.773c0.057-2.912,1.672-5.592,4.438-6.658L134.916,85.295z M142.554,93.451v-2.276
			c0-2.854-1.988-4.323-4.583-4.438c-2.046-0.028-4.122,1.066-4.928,3.084c-0.26,0.605-0.404,1.384-0.432,2.133
			c-0.059,1.874,0.546,3.604,2.104,4.899c0.863,0.663,1.9,1.008,2.967,1.096C140.335,97.947,142.41,96.334,142.554,93.451z"/>
		<path fill="#1D70B7" d="M157.457,99.417l0.03-0.028c-0.894,0.374-1.874,0.549-2.768,0.549c-1.729,0-3.747-0.75-4.727-2.536v1.353
			c0,0.635-0.318,1.009-0.98,1.009s-1.065-0.374-1.065-1.009V81.345c0-1.325,2.104-1.325,2.104,0v5.737
			c0.865-1.528,2.738-2.336,4.669-2.336c4.323,0,7.263,3.084,7.378,7.178C162.186,95.267,160.602,98.121,157.457,99.417z
			 M157.862,96.853c1.556-1.296,2.161-3.026,2.132-4.9c-0.028-0.748-0.2-1.528-0.432-2.133c-0.836-1.989-2.883-3.083-4.928-3.083
			c-2.623,0.115-4.584,1.902-4.584,4.438v2.277c0,2.823,2.219,4.496,4.842,4.496C155.989,97.86,157.025,97.516,157.862,96.853z"/>
	</g>
</g>
</svg>
