<?xml version="1.0" encoding="utf-8"?>
<!-- Generator: Adobe Illustrator 16.0.0, SVG Export Plug-In . SVG Version: 6.00 Build 0)  -->
<!DOCTYPE svg PUBLIC "-//W3C//DTD SVG 1.1//EN" "http://www.w3.org/Graphics/SVG/1.1/DTD/svg11.dtd">
<svg version="1.1" id="Calque_1" xmlns="http://www.w3.org/2000/svg" xmlns:xlink="http://www.w3.org/1999/xlink" x="0px" y="0px"
	 width="284px" height="55.75px" viewBox="0 0 284 55.75" enable-background="new 0 0 284 55.75" xml:space="preserve">
<path fill="#FFFFFF" d="M10.884,46.875c-1.431,0-2.632-1.144-2.632-2.46V12.881c0-1.315,1.201-2.403,2.632-2.403h12.477
	c11.389,0,17.054,9.1,17.054,18.199c0,9.101-5.665,18.198-17.054,18.198H10.884z M12.373,43.156h10.988
	c8.584,0,12.876-7.269,12.876-14.479s-4.292-14.536-12.876-14.536H12.373V43.156z"/>
<path fill="#FFFFFF" d="M62.968,17.86c6.467,1.775,10.473,7.04,10.587,14.365v-0.057c0.115,1.259-0.458,2.633-2.804,2.633H48.146
	c0.744,4.693,4.75,8.584,10.473,8.584c2.632,0,5.379-0.687,7.611-2.403c2.003-1.831,4.979,0.515,2.747,2.804
	c-2.632,2.461-6.467,3.49-10.187,3.434c-4.464,0-8.927-1.717-11.617-5.094C40.992,34,43.682,20.837,54.326,17.86
	c2.69-0.8,5.781-0.744,8.585,0H62.968z M47.974,31.311h21.575c-0.4-4.865-3.376-8.586-7.84-9.73h0.057
	c-1.889-0.515-4.234-0.515-6.181,0.057C51.007,22.839,48.317,26.674,47.974,31.311z"/>
<path fill="#FFFFFF" d="M74.762,20.093c-0.858-2.404,2.918-3.777,3.949-1.545c3.949,7.898,7.211,14.365,11.216,22.32l11.332-22.435
	c0.858-2.117,4.75-0.917,3.72,1.431l-13.22,26.268c-0.744,1.487-2.69,1.946-3.776,0.058L74.762,20.093z"/>
<path fill="#FFFFFF" d="M113.852,13.453c0,2.575-4.292,2.633-4.292,0v-2.575c0-2.633,4.292-2.633,4.292,0V13.453z M109.616,19.635
	c0-2.461,4.178-2.519,4.178-0.057v25.81c0,2.519-4.178,2.461-4.178,0V19.635z"/>
<path fill="#FFFFFF" d="M133.711,20.779c-6.238,0-10.473,5.094-10.473,11.619c0,2.575,0.744,5.494,2.46,7.554
	c2.003,2.461,5.15,3.776,8.241,3.776c3.033,0,6.353-1.029,8.355-3.776c1.432-1.947,4.865,0.286,2.919,2.518
	c-2.805,3.434-7.096,5.094-11.332,5.094c-4.292,0-8.642-1.774-11.503-5.094c-2.404-2.975-3.606-7.039-3.377-11.217
	c0.458-8.469,6.467-14.25,15.166-14.25c4.12,0,7.439,1.375,10.53,4.865c1.66,1.889-1.431,4.292-3.033,2.404
	C139.492,21.751,136.573,20.779,133.711,20.779z"/>
<path fill="#FFFFFF" d="M167.938,17.86c6.467,1.775,10.474,7.04,10.588,14.365v-0.057c0.114,1.259-0.458,2.633-2.805,2.633h-22.605
	c0.744,4.693,4.751,8.584,10.474,8.584c2.632,0,5.38-0.687,7.611-2.403c2.003-1.831,4.979,0.515,2.747,2.804
	c-2.633,2.461-6.467,3.49-10.188,3.434c-4.464,0-8.928-1.717-11.617-5.094c-6.181-8.125-3.49-21.288,7.153-24.265
	c2.69-0.8,5.78-0.744,8.585,0H167.938z M152.943,31.311h21.575c-0.399-4.865-3.376-8.586-7.84-9.73h0.058
	c-1.889-0.515-4.235-0.515-6.181,0.057C155.978,22.839,153.287,26.674,152.943,31.311z"/>
<path fill="#FFFFFF" d="M186.542,46.875c-1.546,0-2.175-0.743-2.175-2.116V11.908c0-2.69,4.234-2.69,4.234,0v31.19h21.404
	c2.919,0,2.919,3.777,0,3.777H186.542z"/>
<path fill="#FFFFFF" d="M222.055,18.491c1.89-0.86,3.95-1.146,6.124-1.089c3.262,0.058,6.982,1.089,9.042,4.464v-2.175
	c0-1.201,0.745-2.061,2.061-2.061c1.26,0,2.118,0.86,2.118,2.061v25.41c0,1.26-0.858,2.06-2.118,2.06c-1.315,0-2.061-0.8-2.061-2.06
	v-2.747c-1.659,3.319-5.895,5.208-9.271,5.208c-2.747,0-5.837-0.744-8.241-2.461c-4.35-2.977-6.582-7.841-6.41-13.449
	c0.115-5.78,3.32-11.102,8.814-13.22L222.055,18.491z M237.221,34.686v-4.521c0-5.665-3.948-8.583-9.099-8.812
	c-4.063-0.057-8.184,2.117-9.786,6.123c-0.515,1.202-0.802,2.748-0.858,4.235c-0.114,3.72,1.087,7.154,4.178,9.729
	c1.717,1.315,3.776,2.002,5.894,2.174C232.814,43.613,236.935,40.408,237.221,34.686z"/>
<path fill="#FFFFFF" d="M266.813,46.531l0.058-0.056c-1.774,0.743-3.72,1.087-5.494,1.087c-3.434,0-7.439-1.487-9.386-5.035v2.689
	c0,1.259-0.629,2.002-1.946,2.002c-1.315,0-2.116-0.743-2.116-2.002V10.649c0-2.632,4.177-2.632,4.177,0v11.39
	c1.717-3.033,5.438-4.637,9.271-4.637c8.585,0,14.422,6.125,14.65,14.25C276.199,38.291,273.053,43.957,266.813,46.531z
	 M267.615,41.439c3.09-2.575,4.292-6.01,4.235-9.729c-0.058-1.487-0.401-3.033-0.858-4.235c-1.66-3.948-5.724-6.123-9.786-6.123
	c-5.208,0.229-9.101,3.777-9.101,8.812v4.521c0,5.608,4.407,8.928,9.615,8.928C263.896,43.441,265.955,42.755,267.615,41.439z"/>
</svg>
