<?xml version="1.0" encoding="utf-8"?>
<!-- Generator: Adobe Illustrator 16.0.0, SVG Export Plug-In . SVG Version: 6.00 Build 0)  -->
<!DOCTYPE svg PUBLIC "-//W3C//DTD SVG 1.1//EN" "http://www.w3.org/Graphics/SVG/1.1/DTD/svg11.dtd">
<svg version="1.1" id="Layer_1" xmlns="http://www.w3.org/2000/svg" xmlns:xlink="http://www.w3.org/1999/xlink" x="0px" y="0px"
	 width="128px" height="128px" viewBox="0 0 128 128" enable-background="new 0 0 128 128" xml:space="preserve">
<g>
	<path fill="#244153" d="M22.053,57.156c-2.828,0-5.134,2.274-5.134,5.075s2.306,5.084,5.134,5.084s5.132-2.283,5.132-5.084
		S24.881,57.156,22.053,57.156z"/>
	<path fill="#244153" d="M123.834,44H4.165C2.97,44,2,44.96,2,46.145v35.71C2,83.039,2.97,84,4.165,84h119.669
		c1.196,0,2.166-0.961,2.166-2.146v-35.71C126,44.96,125.03,44,123.834,44z M34.342,71.784c-0.272,0.376-0.703,0.573-1.133,0.573
		c-0.286,0-0.565-0.081-0.816-0.258l-5.338-3.785c-1.369,1.101-3.107,1.761-5.002,1.761c-4.369,0-7.92-3.517-7.92-7.844
		c0-4.32,3.551-7.844,7.92-7.844s7.92,3.523,7.92,7.844c0,1.451-0.403,2.808-1.098,3.97l5.146,3.65
		C34.648,70.298,34.792,71.162,34.342,71.784z M115,77H43V53h72V77z"/>
</g>
<g>
	<path fill="#244153" d="M55.257,63.86H51.27v-4.078h-2.435v10.611h2.435v-4.442h3.987v4.442h2.418V59.782h-2.418V63.86z
		 M55.257,63.86"/>
	<path fill="#244153" d="M58.983,61.801h2.877v8.593h2.433v-8.593h2.925v-2.019h-8.234V61.801z M58.983,61.801"/>
	<path fill="#244153" d="M68.043,61.801h2.875v8.593h2.435v-8.593h2.924v-2.019h-8.233V61.801z M68.043,61.801"/>
	<path fill="#244153" d="M80.843,59.708c-1.479,0-2.528,0.088-3.278,0.216v10.47h2.406V66.6c0.218,0.034,0.504,0.048,0.823,0.048
		c1.433,0,2.652-0.344,3.482-1.121c0.635-0.593,0.982-1.478,0.982-2.518c0-1.039-0.457-1.917-1.145-2.458
		C83.398,59.991,82.335,59.708,80.843,59.708L80.843,59.708z M80.781,64.804c-0.355,0-0.606-0.012-0.811-0.061v-3.131
		c0.169-0.049,0.504-0.095,1.001-0.095c1.206,0,1.888,0.58,1.888,1.559C82.859,64.163,82.062,64.804,80.781,64.804L80.781,64.804z
		 M80.781,64.804"/>
</g>
</svg>
