<?xml version="1.0" encoding="utf-8"?>
<!-- Generator: Adobe Illustrator 16.0.0, SVG Export Plug-In . SVG Version: 6.00 Build 0)  -->
<!DOCTYPE svg PUBLIC "-//W3C//DTD SVG 1.1//EN" "http://www.w3.org/Graphics/SVG/1.1/DTD/svg11.dtd">
<svg version="1.1" id="Layer_1" xmlns="http://www.w3.org/2000/svg" xmlns:xlink="http://www.w3.org/1999/xlink" x="0px" y="0px"
	 width="128px" height="128px" viewBox="0 0 128 128" enable-background="new 0 0 128 128" xml:space="preserve">
<g>
	<path fill="#244153" d="M68.238,35c-12.777,0-24.161,5.252-32.76,13.459l6.35,6.877c7.103-6.774,16.094-10.974,26.41-10.974
		c10.312,0,19.309,4.194,26.411,10.974L101,48.459C92.4,40.252,81.018,35,68.238,35z M68.238,53.725
		c-7.785,0-14.602,3.39-19.483,8.338l6.642,6.731c3.431-3.478,7.698-5.706,12.842-5.706c5.145,0,9.412,2.229,12.844,5.706
		l6.641-6.731C82.841,57.114,76.025,53.725,68.238,53.725z M68.238,72.45c-2.771,0-5.107,0.908-6.492,2.781l6.492,6.581l6.493-6.581
		C73.346,73.358,71.01,72.45,68.238,72.45z"/>
	<path fill="#E5007E" d="M34.745,71.348L27,93h4.054l1.486-4.355h8.157L42.222,93h4.323l-7.761-21.652H34.745z M33.766,85.001
		l2.851-8.34l2.804,8.34H33.766z"/>
</g>
</svg>
