<?xml version="1.0" encoding="utf-8"?>
<!-- Generator: Adobe Illustrator 16.0.0, SVG Export Plug-In . SVG Version: 6.00 Build 0)  -->
<!DOCTYPE svg PUBLIC "-//W3C//DTD SVG 1.1//EN" "http://www.w3.org/Graphics/SVG/1.1/DTD/svg11.dtd">
<svg version="1.1" id="Layer_1" xmlns="http://www.w3.org/2000/svg" xmlns:xlink="http://www.w3.org/1999/xlink" x="0px" y="0px"
	 width="128px" height="128px" viewBox="0 0 128 128" enable-background="new 0 0 128 128" xml:space="preserve">
<g>
	<path fill="#244153" d="M93.645,85.773c-2.822,0-4.801-1.568-5.93-4.705c-1.131-3.137-2.318-8.619-3.568-16.451
		c-1.172-7.586-2.461-13.182-3.873-16.789c-1.291-3.322-3.206-5.957-5.747-7.904s-5.484-2.922-8.832-2.922
		c-8.632-0.082-14.338,3.467-17.121,10.641c-1.251,3.158-2.603,8.795-4.054,16.914c-0.847,4.961-1.717,9.9-2.603,14.822
		c-0.725,3.525-3.167,5.289-7.319,5.289c-1.251,0-2.723-0.146-4.417-0.432C30.06,84.564,30,84.914,30,85.281
		c0,2.215,2.338,3.629,7.018,4.244c0.685,0.082,1.371,0.123,2.056,0.123c2.421,0,4.962-0.574,7.624-1.723
		c2.662-1.146,4.639-1.701,5.93-1.66c1.531,0,3.275,0.697,5.23,2.092c1.959,1.393,3.943,2.092,5.96,2.092
		c1.978,0.037,4.137-0.494,6.474-1.6c2.219-1.025,4.136-1.477,5.747-1.354c1.25,0.123,2.905,0.76,4.962,1.906
		c1.895,1.025,4.295,1.557,7.199,1.598c1.814-0.08,3.389-0.367,4.719-0.859c3.146-1.189,4.84-3.281,5.082-6.271
		C96.789,85.138,95.338,85.773,93.645,85.773z M70.06,61.005c-2.633,1.061-9.669,0.986-12.034-0.076
		c-2.365-1.061-7.993-6.826-4.639-12.057c1.96-3.055,21.138-3.303,23.59,0.592C79.428,53.359,72.341,60.085,70.06,61.005z"/>
	<ellipse fill="#244153" cx="59.797" cy="53.503" rx="1.922" ry="3.219"/>
	<ellipse fill="#244153" cx="69.308" cy="53.503" rx="1.922" ry="3.219"/>
</g>
</svg>
