<?xml version="1.0" encoding="utf-8"?>
<!-- Generator: Adobe Illustrator 16.0.0, SVG Export Plug-In . SVG Version: 6.00 Build 0)  -->
<!DOCTYPE svg PUBLIC "-//W3C//DTD SVG 1.1//EN" "http://www.w3.org/Graphics/SVG/1.1/DTD/svg11.dtd">
<svg version="1.1" id="Layer_1" xmlns="http://www.w3.org/2000/svg" xmlns:xlink="http://www.w3.org/1999/xlink" x="0px" y="0px"
	 width="127px" height="20px" viewBox="0 0 127 20" enable-background="new 0 0 127 20" xml:space="preserve">
<g>
	<path fill="#FFFFFF" d="M2.229,18.255C1.561,18.255,1,17.721,1,17.106V2.386c0-0.613,0.561-1.122,1.229-1.122h5.824
		c5.316,0,7.961,4.249,7.961,8.496c0,4.249-2.645,8.495-7.961,8.495H2.229z M2.924,16.519h5.129c4.007,0,6.01-3.394,6.01-6.758
		c0-3.365-2.003-6.786-6.01-6.786H2.924V16.519z"/>
	<path fill="#FFFFFF" d="M26.541,4.711c3.02,0.828,4.89,3.286,4.942,6.705V11.39c0.054,0.588-0.213,1.229-1.308,1.229H19.623
		c0.348,2.191,2.218,4.008,4.889,4.008c1.229,0,2.51-0.321,3.553-1.121c0.935-0.855,2.324,0.24,1.283,1.308
		c-1.229,1.149-3.02,1.629-4.756,1.604c-2.083,0-4.166-0.802-5.423-2.378c-2.885-3.793-1.629-9.938,3.34-11.327
		c1.255-0.374,2.698-0.347,4.007,0H26.541z M19.542,10.99h10.071c-0.186-2.272-1.575-4.009-3.659-4.543h0.026
		c-0.881-0.24-1.976-0.24-2.884,0.027C20.958,7.035,19.702,8.824,19.542,10.99z"/>
	<path fill="#FFFFFF" d="M32.047,5.753c-0.4-1.122,1.362-1.763,1.843-0.721c1.844,3.686,3.366,6.707,5.236,10.418l5.289-10.472
		c0.4-0.988,2.218-0.428,1.737,0.668l-6.171,12.261c-0.347,0.695-1.256,0.909-1.763,0.027L32.047,5.753z"/>
	<path fill="#FFFFFF" d="M50.294,2.653c0,1.202-2.002,1.229-2.002,0V1.451c0-1.229,2.002-1.229,2.002,0V2.653z M48.317,5.539
		c0-1.148,1.949-1.175,1.949-0.025v12.048c0,1.176-1.949,1.148-1.949,0V5.539z"/>
	<path fill="#FFFFFF" d="M59.564,6.073c-2.912,0-4.889,2.378-4.889,5.424c0,1.202,0.347,2.564,1.147,3.526
		c0.936,1.148,2.405,1.763,3.848,1.763c1.416,0,2.966-0.48,3.899-1.763c0.669-0.909,2.271,0.134,1.362,1.176
		c-1.309,1.603-3.312,2.377-5.289,2.377c-2.003,0-4.036-0.827-5.37-2.377c-1.122-1.39-1.684-3.286-1.576-5.236
		c0.214-3.954,3.019-6.652,7.08-6.652c1.923,0,3.472,0.642,4.916,2.271c0.774,0.882-0.669,2.004-1.417,1.123
		C62.262,6.527,60.899,6.073,59.564,6.073z"/>
	<path fill="#FFFFFF" d="M75.541,4.711c3.019,0.828,4.89,3.286,4.942,6.705V11.39c0.054,0.588-0.214,1.229-1.31,1.229H68.622
		c0.347,2.191,2.218,4.008,4.889,4.008c1.229,0,2.513-0.321,3.554-1.121c0.935-0.855,2.324,0.24,1.282,1.308
		c-1.229,1.149-3.02,1.629-4.757,1.604c-2.083,0-4.167-0.802-5.422-2.378c-2.886-3.793-1.629-9.937,3.339-11.327
		c1.256-0.374,2.698-0.347,4.008,0H75.541L75.541,4.711z M68.541,10.99h10.071c-0.186-2.272-1.575-4.009-3.659-4.543h0.026
		c-0.881-0.24-1.978-0.24-2.885,0.027C69.958,7.035,68.702,8.824,68.541,10.99z"/>
	<path fill="#FFFFFF" d="M84.226,18.255c-0.721,0-1.015-0.348-1.015-0.988V1.933c0-1.256,1.976-1.256,1.976,0v14.56h9.992
		c1.362,0,1.362,1.763,0,1.763H84.226z"/>
	<path fill="#FFFFFF" d="M100.803,5.005c0.883-0.402,1.844-0.535,2.859-0.509c1.522,0.027,3.259,0.509,4.221,2.084V5.565
		c0-0.561,0.348-0.962,0.961-0.962c0.589,0,0.99,0.402,0.99,0.962v11.861c0,0.589-0.401,0.962-0.99,0.962
		c-0.613,0-0.961-0.373-0.961-0.962v-1.282c-0.775,1.549-2.752,2.432-4.328,2.432c-1.282,0-2.725-0.348-3.847-1.149
		c-2.03-1.39-3.073-3.661-2.992-6.278c0.053-2.697,1.55-5.182,4.114-6.17L100.803,5.005z M107.883,12.564v-2.11
		c0-2.644-1.844-4.006-4.248-4.113c-1.896-0.026-3.82,0.988-4.567,2.858c-0.241,0.561-0.375,1.283-0.4,1.978
		c-0.054,1.736,0.507,3.339,1.95,4.541c0.801,0.614,1.762,0.935,2.75,1.015C105.826,16.732,107.749,15.237,107.883,12.564z"/>
	<path fill="#FFFFFF" d="M121.695,18.095l0.028-0.026c-0.829,0.347-1.736,0.508-2.565,0.508c-1.603,0-3.473-0.694-4.38-2.351v1.255
		c0,0.588-0.296,0.935-0.909,0.935c-0.614,0-0.988-0.347-0.988-0.935V1.344c0-1.228,1.949-1.228,1.949,0v5.317
		c0.803-1.417,2.539-2.165,4.328-2.165c4.007,0,6.732,2.86,6.839,6.652C126.078,14.248,124.609,16.893,121.695,18.095z
		 M122.07,15.718c1.443-1.202,2.004-2.806,1.977-4.542c-0.026-0.694-0.186-1.416-0.4-1.977c-0.774-1.843-2.672-2.858-4.567-2.858
		c-2.431,0.106-4.249,1.763-4.249,4.113v2.11c0,2.617,2.058,4.168,4.488,4.168C120.335,16.652,121.295,16.332,122.07,15.718z"/>
</g>
</svg>
