<?xml version="1.0" encoding="utf-8"?>
<!-- Generator: Adobe Illustrator 16.0.0, SVG Export Plug-In . SVG Version: 6.00 Build 0)  -->
<!DOCTYPE svg PUBLIC "-//W3C//DTD SVG 1.1//EN" "http://www.w3.org/Graphics/SVG/1.1/DTD/svg11.dtd">
<svg version="1.1" id="Layer_1" xmlns="http://www.w3.org/2000/svg" xmlns:xlink="http://www.w3.org/1999/xlink" x="0px" y="0px"
	 width="57px" height="57px" viewBox="0 0 57 57" enable-background="new 0 0 57 57" xml:space="preserve">
<path fill="none" stroke="#FFFFFF" stroke-width="0.9167" stroke-miterlimit="10" d="M20.32,13.479v29.512l24.145-14.756
	L20.32,13.479z M20.892,14.314l22.781,13.921L20.892,42.157V14.314z"/>
<path fill="none" stroke="#FFFFFF" stroke-width="0.9167" stroke-miterlimit="10" d="M28.622,55.735
	c-15.164,0-27.5-12.337-27.5-27.5c0-15.164,12.336-27.5,27.5-27.5c15.163,0,27.5,12.336,27.5,27.5
	C56.122,43.398,43.785,55.735,28.622,55.735z M28.622,1.273C13.755,1.273,1.66,13.369,1.66,28.235
	c0,14.867,12.095,26.962,26.962,26.962c14.866,0,26.962-12.095,26.962-26.962C55.584,13.369,43.488,1.273,28.622,1.273z"/>
</svg>
